<mxfile host="app.diagrams.net" modified="2023-10-17T06:49:57.523Z" agent="Mozilla/5.0 (Macintosh; Intel Mac OS X 10_15_7) AppleWebKit/537.36 (KHTML, like Gecko) Chrome/117.0.0.0 Safari/537.36" etag="4aoEVtPJtZsXYZl0uDwU" version="21.6.6" type="github">
  <diagram name="第 1 页" id="nlEEVLn6xtF4sZ3uUOPl">
    <mxGraphModel dx="1194" dy="639" grid="1" gridSize="10" guides="1" tooltips="1" connect="1" arrows="1" fold="1" page="1" pageScale="1" pageWidth="827" pageHeight="1169" math="0" shadow="0">
      <root>
        <mxCell id="0" />
        <mxCell id="1" parent="0" />
        <mxCell id="iy5B-ksnF3wtMXwRuHSw-5" style="edgeStyle=orthogonalEdgeStyle;rounded=0;orthogonalLoop=1;jettySize=auto;html=1;exitX=0.5;exitY=1;exitDx=0;exitDy=0;entryX=0.5;entryY=0;entryDx=0;entryDy=0;" edge="1" parent="1" source="iy5B-ksnF3wtMXwRuHSw-2" target="iy5B-ksnF3wtMXwRuHSw-3">
          <mxGeometry relative="1" as="geometry" />
        </mxCell>
        <mxCell id="iy5B-ksnF3wtMXwRuHSw-6" style="edgeStyle=orthogonalEdgeStyle;rounded=0;orthogonalLoop=1;jettySize=auto;html=1;exitX=0.5;exitY=1;exitDx=0;exitDy=0;" edge="1" parent="1" source="iy5B-ksnF3wtMXwRuHSw-2" target="iy5B-ksnF3wtMXwRuHSw-4">
          <mxGeometry relative="1" as="geometry" />
        </mxCell>
        <mxCell id="iy5B-ksnF3wtMXwRuHSw-2" value="填写项目基础信息（市场部）" style="rounded=0;whiteSpace=wrap;html=1;" vertex="1" parent="1">
          <mxGeometry x="210" y="100" width="120" height="60" as="geometry" />
        </mxCell>
        <mxCell id="iy5B-ksnF3wtMXwRuHSw-8" style="edgeStyle=orthogonalEdgeStyle;rounded=0;orthogonalLoop=1;jettySize=auto;html=1;entryX=0.5;entryY=0;entryDx=0;entryDy=0;" edge="1" parent="1" source="iy5B-ksnF3wtMXwRuHSw-3" target="iy5B-ksnF3wtMXwRuHSw-7">
          <mxGeometry relative="1" as="geometry" />
        </mxCell>
        <mxCell id="iy5B-ksnF3wtMXwRuHSw-3" value="填写预算信息和建设信息&lt;br&gt;（工程部）" style="rounded=0;whiteSpace=wrap;html=1;" vertex="1" parent="1">
          <mxGeometry x="40" y="230" width="170" height="60" as="geometry" />
        </mxCell>
        <mxCell id="iy5B-ksnF3wtMXwRuHSw-9" style="edgeStyle=orthogonalEdgeStyle;rounded=0;orthogonalLoop=1;jettySize=auto;html=1;" edge="1" parent="1" source="iy5B-ksnF3wtMXwRuHSw-4" target="iy5B-ksnF3wtMXwRuHSw-7">
          <mxGeometry relative="1" as="geometry" />
        </mxCell>
        <mxCell id="iy5B-ksnF3wtMXwRuHSw-4" value="填写机房设备及运维信息&lt;br&gt;（运维部）" style="rounded=0;whiteSpace=wrap;html=1;" vertex="1" parent="1">
          <mxGeometry x="320" y="230" width="170" height="60" as="geometry" />
        </mxCell>
        <mxCell id="iy5B-ksnF3wtMXwRuHSw-16" value="" style="edgeStyle=orthogonalEdgeStyle;rounded=0;orthogonalLoop=1;jettySize=auto;html=1;" edge="1" parent="1" source="iy5B-ksnF3wtMXwRuHSw-7" target="iy5B-ksnF3wtMXwRuHSw-14">
          <mxGeometry relative="1" as="geometry" />
        </mxCell>
        <mxCell id="iy5B-ksnF3wtMXwRuHSw-7" value="对以下填写的信息进行审核，并填写项目运营信息（市场部）" style="rounded=0;whiteSpace=wrap;html=1;" vertex="1" parent="1">
          <mxGeometry x="210" y="370" width="120" height="60" as="geometry" />
        </mxCell>
        <mxCell id="iy5B-ksnF3wtMXwRuHSw-12" value="" style="edgeStyle=orthogonalEdgeStyle;rounded=0;orthogonalLoop=1;jettySize=auto;html=1;" edge="1" parent="1" source="iy5B-ksnF3wtMXwRuHSw-10" target="iy5B-ksnF3wtMXwRuHSw-11">
          <mxGeometry relative="1" as="geometry" />
        </mxCell>
        <mxCell id="iy5B-ksnF3wtMXwRuHSw-10" value="" style="shape=curlyBracket;whiteSpace=wrap;html=1;rounded=1;flipH=1;labelPosition=right;verticalLabelPosition=middle;align=left;verticalAlign=middle;" vertex="1" parent="1">
          <mxGeometry x="530" y="100" width="20" height="320" as="geometry" />
        </mxCell>
        <mxCell id="iy5B-ksnF3wtMXwRuHSw-11" value="填写的所有信息都互相可见，但不可互相编辑" style="whiteSpace=wrap;html=1;align=left;rounded=1;" vertex="1" parent="1">
          <mxGeometry x="580" y="230" width="120" height="60" as="geometry" />
        </mxCell>
        <mxCell id="iy5B-ksnF3wtMXwRuHSw-17" value="" style="edgeStyle=orthogonalEdgeStyle;rounded=0;orthogonalLoop=1;jettySize=auto;html=1;" edge="1" parent="1" source="iy5B-ksnF3wtMXwRuHSw-14" target="iy5B-ksnF3wtMXwRuHSw-15">
          <mxGeometry relative="1" as="geometry" />
        </mxCell>
        <mxCell id="iy5B-ksnF3wtMXwRuHSw-14" value="分管领导审核" style="rounded=0;whiteSpace=wrap;html=1;" vertex="1" parent="1">
          <mxGeometry x="210" y="480" width="120" height="60" as="geometry" />
        </mxCell>
        <mxCell id="iy5B-ksnF3wtMXwRuHSw-19" value="" style="edgeStyle=orthogonalEdgeStyle;rounded=0;orthogonalLoop=1;jettySize=auto;html=1;" edge="1" parent="1" source="iy5B-ksnF3wtMXwRuHSw-15" target="iy5B-ksnF3wtMXwRuHSw-18">
          <mxGeometry relative="1" as="geometry" />
        </mxCell>
        <mxCell id="iy5B-ksnF3wtMXwRuHSw-15" value="总经理审批" style="rounded=0;whiteSpace=wrap;html=1;" vertex="1" parent="1">
          <mxGeometry x="210" y="585" width="120" height="60" as="geometry" />
        </mxCell>
        <mxCell id="iy5B-ksnF3wtMXwRuHSw-18" value="完成立项" style="rounded=1;whiteSpace=wrap;html=1;" vertex="1" parent="1">
          <mxGeometry x="210" y="690" width="120" height="60" as="geometry" />
        </mxCell>
      </root>
    </mxGraphModel>
  </diagram>
</mxfile>
